# xmcd
#
# Track frame offsets: 
#        150
#        13006
#        27581
#        40415
#        53307
#        66552
#        81598
#        99117
#        110581
#        124585
#        136347
#        148054
#        160447
#        171768
#
# Disc length: 2443 seconds
#
# Revision: 0
# Processed by: cddbd v1.5.2PL0 Copyright (c) Steve Scherf et al.
# Submitted via: ExactAudioCopy v0.95b3
#
DISCID=c309890e
DTITLE=Dave Clark Five  - If Somebody Loves You  FLAC
DYEAR=1900
DGENRE=
TTITLE0=If Somebody Loves You
TTITLE1=It Ain't What You Do
TTITLE2=Live In The Sky
TTITLE3=Five By Five
TTITLE4=Here Comes Summer
TTITLE5=How Do You Get to Heaven
TTITLE6=Everybody Get Together
TTITLE7=Julia
TTITLE8=Break Down And Cry
TTITLE9=I Am On My Own
TTITLE10=Red And Blue
TTITLE11=If You Wanna See Me Cry
TTITLE12=Worried Times
TTITLE13=Darling I Love You
EXTD=
EXTT0=
EXTT1=
EXTT2=
EXTT3=
EXTT4=
EXTT5=
EXTT6=
EXTT7=
EXTT8=
EXTT9=
EXTT10=
EXTT11=
EXTT12=
EXTT13=
PLAYORDER=
